STARTFONT 2.1
FONT -Adobe-ITC Avant Garde Gothic-Book-O-Normal--24-240-75-75-P-138-ISO8859-1
SIZE 24 75 75
FONTBOUNDINGBOX 33 28 -3 -4

STARTPROPERTIES 25
FONTNAME_REGISTRY ""
FAMILY_NAME "ITC Avant Garde Gothic"
FOUNDRY "Adobe"
WEIGHT_NAME "Book"
SLANT "O"
SETWIDTH_NAME "Normal"
ADD_STYLE_NAME ""
PIXEL_SIZE 24
POINT_SIZE 240
RESOLUTION_X 75
RESOLUTION_Y 75
SPACING "P"
AVERAGE_WIDTH 138
CHARSET_REGISTRY "ISO8859"
CHARSET_ENCODING "1"
CHARSET_COLLECTIONS "ASCII ISO8859-1 ADOBE-STANDARD"
FULL_NAME "ITC Avant Garde Gothic Book Oblique"
COPYRIGHT "Copyright (c) 1985,1987 Adobe Systems, Inc., Portions Copyright 1988 Digital Equipment Corp."
CAP_HEIGHT 19
X_HEIGHT 14
WEIGHT 10
QUAD_WIDTH 16
DEFAULT_CHAR 32
FONT_DESCENT 4
FONT_ASCENT 22
ENDPROPERTIES

CHARS 190

STARTCHAR space
ENCODING 32
SWIDTH 277 0
DWIDTH 7 0
BBX 1 1 0 0
BITMAP
00
ENDCHAR

STARTCHAR exclam
ENCODING 33
SWIDTH 295 0
DWIDTH 7 0
BBX 6 19 1 0
BITMAP
0C
0C
0C
0C
18
18
18
18
30
30
30
30
60
60
60
00
00
C0
C0
ENDCHAR

STARTCHAR quotedbl
ENCODING 34
SWIDTH 309 0
DWIDTH 8 0
BBX 7 6 2 13
BITMAP
66
66
66
CC
CC
CC
ENDCHAR

STARTCHAR numbersign
ENCODING 35
SWIDTH 720 0
DWIDTH 14 0
BBX 13 19 1 0
BITMAP
0088
0088
0198
0110
0330
0220
3FF8
0440
0CC0
0880
1980
FFE0
1100
3300
2200
6600
4400
CC00
8800
ENDCHAR

STARTCHAR dollar
ENCODING 36
SWIDTH 554 0
DWIDTH 14 0
BBX 13 21 0 -2
BITMAP
0180
0180
07E0
1FF0
1838
3018
3018
3800
1C00
0F00
0380
01C0
00E0
C060
C060
C0E0
E1C0
7F80
3E00
0C00
0C00
ENDCHAR

STARTCHAR percent
ENCODING 37
SWIDTH 775 0
DWIDTH 19 0
BBX 16 19 1 0
BITMAP
1C06
3E0C
630C
6318
6330
C630
C660
C6C0
7CC0
399C
033E
0363
0663
0C63
0CC6
18C6
30C6
307C
6038
ENDCHAR

STARTCHAR ampersand
ENCODING 38
SWIDTH 757 0
DWIDTH 18 0
BBX 16 19 1 0
BITMAP
07C0
0FE0
1C70
1830
1830
1C70
0FE0
0780
0F06
3F8E
71CC
E0F8
C078
C030
C078
E0FC
71CE
7F87
1E02
ENDCHAR

STARTCHAR quoteright
ENCODING 39
SWIDTH 351 0
DWIDTH 7 0
BBX 3 4 4 15
BITMAP
60
60
C0
C0
ENDCHAR

STARTCHAR parenleft
ENCODING 40
SWIDTH 369 0
DWIDTH 9 0
BBX 9 22 2 -3
BITMAP
0180
0300
0600
0C00
1800
1800
3000
3000
6000
6000
6000
C000
C000
C000
C000
C000
C000
C000
6000
6000
3000
1000
ENDCHAR

STARTCHAR parenright
ENCODING 41
SWIDTH 369 0
DWIDTH 9 0
BBX 8 22 -1 -3
BITMAP
08
0C
06
06
03
03
03
03
03
03
03
03
06
06
06
0C
0C
18
18
30
60
C0
ENDCHAR

STARTCHAR asterisk
ENCODING 42
SWIDTH 425 0
DWIDTH 12 0
BBX 8 5 4 14
BITMAP
66
3C
FF
38
CC
ENDCHAR

STARTCHAR plus
ENCODING 43
SWIDTH 606 0
DWIDTH 15 0
BBX 12 12 1 1
BITMAP
0600
0600
0600
0600
0600
FFF0
FFF0
0600
0600
0600
0600
0600
ENDCHAR

STARTCHAR comma
ENCODING 44
SWIDTH 277 0
DWIDTH 7 0
BBX 4 4 -1 -2
BITMAP
30
30
60
C0
ENDCHAR

STARTCHAR minus
ENCODING 45
SWIDTH 606 0
DWIDTH 14 0
BBX 11 2 1 6
BITMAP
FFE0
FFE0
ENDCHAR

STARTCHAR period
ENCODING 46
SWIDTH 277 0
DWIDTH 7 0
BBX 2 2 1 0
BITMAP
C0
C0
ENDCHAR

STARTCHAR slash
ENCODING 47
SWIDTH 437 0
DWIDTH 12 0
BBX 11 19 0 0
BITMAP
0060
0060
00C0
00C0
0180
0180
0300
0300
0600
0600
0C00
0C00
1800
1800
3000
3000
6000
6000
C000
ENDCHAR

STARTCHAR zero
ENCODING 48
SWIDTH 554 0
DWIDTH 14 0
BBX 13 19 0 0
BITMAP
03E0
0FF0
1C38
1818
3018
3018
3018
3018
6030
6030
6030
6030
C060
C060
C060
C0C0
E1C0
7F80
3E00
ENDCHAR

STARTCHAR one
ENCODING 49
SWIDTH 554 0
DWIDTH 14 0
BBX 6 19 4 0
BITMAP
3C
3C
3C
0C
18
18
18
18
30
30
30
30
60
60
60
60
C0
C0
C0
ENDCHAR

STARTCHAR two
ENCODING 50
SWIDTH 554 0
DWIDTH 14 0
BBX 13 19 0 0
BITMAP
03E0
0FF0
1C38
1818
3818
3018
3018
0030
0070
00E0
01C0
0380
0F00
1C00
3800
7000
C000
FFC0
FFC0
ENDCHAR

STARTCHAR three
ENCODING 51
SWIDTH 554 0
DWIDTH 14 0
BBX 13 19 0 0
BITMAP
03C0
0FF0
1C30
1838
1818
0038
0030
0070
07E0
07C0
00C0
0060
0060
C060
C060
C0E0
E1C0
7F80
3E00
ENDCHAR

STARTCHAR four
ENCODING 52
SWIDTH 554 0
DWIDTH 14 0
BBX 12 19 0 0
BITMAP
0030
0070
00F0
00F0
01B0
0330
0720
0660
0E60
1C60
1860
38C0
70C0
60C0
FFF0
FFF0
0180
0180
0180
ENDCHAR

STARTCHAR five
ENCODING 53
SWIDTH 554 0
DWIDTH 14 0
BBX 13 19 0 0
BITMAP
0FF8
1FF8
1800
1800
1800
3000
37C0
3FE0
3870
0030
0030
0030
0030
C070
C060
C0E0
E1C0
7F80
3E00
ENDCHAR

STARTCHAR six
ENCODING 54
SWIDTH 554 0
DWIDTH 14 0
BBX 12 19 0 0
BITMAP
0070
00E0
01C0
0380
0700
0E00
1C00
3F80
7FE0
70E0
E070
C030
C030
C030
C030
E070
70E0
7FE0
1F80
ENDCHAR

STARTCHAR seven
ENCODING 55
SWIDTH 554 0
DWIDTH 14 0
BBX 13 19 0 0
BITMAP
3FF8
3FF8
0038
0030
0060
00E0
00C0
01C0
0380
0300
0700
0E00
0C00
1C00
3800
3000
7000
E000
C000
ENDCHAR

STARTCHAR eight
ENCODING 56
SWIDTH 554 0
DWIDTH 14 0
BBX 13 19 0 0
BITMAP
03E0
0FF0
0C38
1818
1818
1818
1838
0C70
0FE0
3FE0
7070
6030
C030
C030
C030
C060
E0E0
7FC0
3F00
ENDCHAR

STARTCHAR nine
ENCODING 57
SWIDTH 554 0
DWIDTH 14 0
BBX 12 19 1 0
BITMAP
1F80
7FE0
70E0
E070
C030
C030
C030
C030
E070
70E0
7FE0
1FC0
0380
0700
0E00
1C00
3800
7000
6000
ENDCHAR

STARTCHAR colon
ENCODING 58
SWIDTH 277 0
DWIDTH 7 0
BBX 5 14 1 0
BITMAP
18
18
00
00
00
00
00
00
00
00
00
00
C0
C0
ENDCHAR

STARTCHAR semicolon
ENCODING 59
SWIDTH 277 0
DWIDTH 7 0
BBX 7 16 -1 -2
BITMAP
06
06
00
00
00
00
00
00
00
00
00
00
30
30
60
C0
ENDCHAR

STARTCHAR less
ENCODING 60
SWIDTH 606 0
DWIDTH 16 0
BBX 12 11 1 2
BITMAP
0070
01E0
0780
1E00
7800
E000
7800
1E00
0780
01E0
0070
ENDCHAR

STARTCHAR equal
ENCODING 61
SWIDTH 606 0
DWIDTH 14 0
BBX 11 6 1 4
BITMAP
FFE0
FFE0
0000
0000
FFE0
FFE0
ENDCHAR

STARTCHAR greater
ENCODING 62
SWIDTH 606 0
DWIDTH 16 0
BBX 12 11 2 2
BITMAP
E000
7800
1E00
0780
01E0
0070
01E0
0780
1E00
7800
E000
ENDCHAR

STARTCHAR question
ENCODING 63
SWIDTH 591 0
DWIDTH 13 0
BBX 10 19 3 0
BITMAP
1F00
7F80
E1C0
C0C0
C0C0
00C0
01C0
0380
0700
0E00
1C00
1800
3000
3000
3000
0000
0000
6000
6000
ENDCHAR

STARTCHAR at
ENCODING 64
SWIDTH 867 0
DWIDTH 22 0
BBX 19 19 1 0
BITMAP
01FC00
07FF00
0F0380
1C00C0
3000C0
31D860
67F860
663860
CC1860
CC30C0
CC30C0
CC3180
CE7380
E7FF00
639C00
700000
3C0700
1FFE00
07F800
ENDCHAR

STARTCHAR A
ENCODING 65
SWIDTH 740 0
DWIDTH 19 0
BBX 17 19 0 0
BITMAP
001800
003800
003800
007800
00EC00
00CC00
01CC00
038C00
030600
070600
060600
0FFE00
1FFF00
180300
380300
700300
600380
E00180
C00180
ENDCHAR

STARTCHAR B
ENCODING 66
SWIDTH 574 0
DWIDTH 14 0
BBX 14 19 0 0
BITMAP
0FE0
0FF8
0C1C
0C0C
180C
180C
1818
1838
3FE0
3FF0
3038
3018
6018
6018
6038
6030
C0F0
FFE0
FF80
ENDCHAR

STARTCHAR C
ENCODING 67
SWIDTH 813 0
DWIDTH 20 0
BBX 18 19 1 0
BITMAP
00FC00
03FF00
0F0380
1C01C0
3800C0
3000C0
600000
600000
C00000
C00000
C00000
C00000
C00000
E00180
600380
700700
381E00
1FF800
07E000
ENDCHAR

STARTCHAR D
ENCODING 68
SWIDTH 744 0
DWIDTH 17 0
BBX 17 19 0 0
BITMAP
0FF800
0FFE00
0C0F00
0C0300
180180
180180
180180
180180
300180
300180
300180
300300
600300
600600
600E00
601C00
C07800
FFE000
FF8000
ENDCHAR

STARTCHAR E
ENCODING 69
SWIDTH 536 0
DWIDTH 13 0
BBX 14 19 0 0
BITMAP
0FFC
0FFC
0C00
0C00
1800
1800
1800
1800
3FF0
3FF0
3000
3000
6000
6000
6000
6000
C000
FFC0
FFC0
ENDCHAR

STARTCHAR F
ENCODING 70
SWIDTH 485 0
DWIDTH 12 0
BBX 13 19 0 0
BITMAP
0FF8
0FF8
0C00
0C00
1800
1800
1800
1800
3FE0
3FE0
3000
3000
6000
6000
6000
6000
C000
C000
C000
ENDCHAR

STARTCHAR G
ENCODING 71
SWIDTH 872 0
DWIDTH 21 0
BBX 19 19 1 0
BITMAP
00FC00
03FF00
0F0380
1C01C0
3800C0
3000E0
600000
600000
C00000
C00000
C1FFE0
C1FFE0
C000C0
E00180
600380
700700
381E00
1FF800
07E000
ENDCHAR

STARTCHAR H
ENCODING 72
SWIDTH 683 0
DWIDTH 17 0
BBX 18 19 0 0
BITMAP
0C00C0
0C00C0
0C00C0
180180
180180
180180
180180
300300
3FFF00
3FFF00
300300
600600
600600
600600
600600
C00C00
C00C00
C00C00
C00C00
ENDCHAR

STARTCHAR I
ENCODING 73
SWIDTH 226 0
DWIDTH 5 0
BBX 6 19 0 0
BITMAP
0C
0C
0C
18
18
18
18
30
30
30
30
60
60
60
60
C0
C0
C0
C0
ENDCHAR

STARTCHAR J
ENCODING 74
SWIDTH 482 0
DWIDTH 11 0
BBX 13 19 -1 0
BITMAP
0018
0018
0018
0030
0030
0030
0030
0030
0060
0060
0060
0060
00C0
00C0
C0C0
C1C0
E380
7F00
3C00
ENDCHAR

STARTCHAR K
ENCODING 75
SWIDTH 591 0
DWIDTH 14 0
BBX 15 19 0 0
BITMAP
0C06
0C0E
0C1C
0C38
1870
18E0
19C0
1B80
3700
3F00
3B00
3380
6180
61C0
60C0
60E0
C060
C070
C030
ENDCHAR

STARTCHAR L
ENCODING 76
SWIDTH 462 0
DWIDTH 11 0
BBX 10 19 0 0
BITMAP
0C00
0C00
0C00
0C00
1800
1800
1800
1800
3000
3000
3000
3000
6000
6000
6000
6000
C000
FFC0
FFC0
ENDCHAR

STARTCHAR M
ENCODING 77
SWIDTH 919 0
DWIDTH 22 0
BBX 23 19 0 0
BITMAP
0E000E
0E001E
0F001E
0F0036
1B006C
1B006C
1B00CC
1B01CC
318198
318318
318318
318618
618E30
60CC30
60D830
60D830
C0F060
C0E060
C0E060
ENDCHAR

STARTCHAR N
ENCODING 78
SWIDTH 740 0
DWIDTH 18 0
BBX 18 19 0 0
BITMAP
0F00C0
0F00C0
0D80C0
0D80C0
198180
198180
18C180
18C180
30C300
30C300
306300
306300
606600
603600
603600
603600
C03C00
C01C00
C01C00
ENDCHAR

STARTCHAR O
ENCODING 79
SWIDTH 869 0
DWIDTH 21 0
BBX 19 19 1 0
BITMAP
00FC00
03FF00
0F0380
1C01C0
3800C0
3000E0
600060
600060
C00060
C00060
C00060
C000C0
C000C0
E00180
600380
700700
381E00
1FF800
07E000
ENDCHAR

STARTCHAR P
ENCODING 80
SWIDTH 592 0
DWIDTH 13 0
BBX 14 19 0 0
BITMAP
0FE0
0FF8
0C1C
0C0C
180C
180C
180C
1818
3038
3070
3FE0
3F80
6000
6000
6000
6000
C000
C000
C000
ENDCHAR

STARTCHAR Q
ENCODING 81
SWIDTH 871 0
DWIDTH 21 0
BBX 19 19 1 0
BITMAP
00FC00
03FF00
0F0380
1C01C0
3800C0
3000E0
600060
600060
C00060
C00060
C00060
FF00C0
FFC0C0
E1F180
603B80
701F00
381E00
1FFFC0
07E3C0
ENDCHAR

STARTCHAR R
ENCODING 82
SWIDTH 607 0
DWIDTH 15 0
BBX 15 19 0 0
BITMAP
0FF0
0FFC
0C0E
0C06
1806
1806
1806
180E
301C
37F8
37F0
3300
6180
60C0
60E0
6070
C030
C038
C01C
ENDCHAR

STARTCHAR S
ENCODING 83
SWIDTH 498 0
DWIDTH 12 0
BBX 12 19 0 0
BITMAP
07C0
1FE0
1870
3030
3030
3000
3800
1C00
0E00
0700
0380
01C0
00C0
00C0
C0C0
C1C0
E380
7F00
3E00
ENDCHAR

STARTCHAR T
ENCODING 84
SWIDTH 426 0
DWIDTH 11 0
BBX 10 19 3 0
BITMAP
FFC0
FFC0
0C00
0C00
1800
1800
1800
1800
3000
3000
3000
3000
6000
6000
6000
6000
C000
C000
C000
ENDCHAR

STARTCHAR U
ENCODING 85
SWIDTH 655 0
DWIDTH 16 0
BBX 17 19 0 0
BITMAP
180180
180180
180180
180300
300300
300300
300300
300600
600600
600600
600600
600E00
C00C00
C00C00
E01C00
603800
707000
3FE000
1F8000
ENDCHAR

STARTCHAR V
ENCODING 86
SWIDTH 702 0
DWIDTH 17 0
BBX 15 19 2 0
BITMAP
C006
C00E
C00C
C01C
C018
C038
6030
6060
60E0
60C0
61C0
6180
6380
6300
3600
3600
3C00
3800
3800
ENDCHAR

STARTCHAR W
ENCODING 87
SWIDTH 960 0
DWIDTH 23 0
BBX 21 19 2 0
BITMAP
C07018
C07018
C0F038
C0B030
C1B070
C1B060
C3B0E0
C330C0
C731C0
C63180
CE3380
CC3300
DC3700
D83600
D83600
D03400
F03C00
E03800
E03800
ENDCHAR

STARTCHAR X
ENCODING 88
SWIDTH 609 0
DWIDTH 16 0
BBX 17 19 0 0
BITMAP
0E0380
060700
070E00
030C00
031800
03B800
01B000
01E000
01C000
03E000
036000
066000
0E7000
1C3000
383800
301800
701C00
E00C00
C00C00
ENDCHAR

STARTCHAR Y
ENCODING 89
SWIDTH 592 0
DWIDTH 14 0
BBX 14 19 2 0
BITMAP
C00C
C01C
6038
6030
6060
30E0
30C0
3180
1B80
1B00
1E00
1E00
0C00
1800
1800
1800
3000
3000
3000
ENDCHAR

STARTCHAR Z
ENCODING 90
SWIDTH 480 0
DWIDTH 12 0
BBX 15 19 -1 0
BITMAP
0FFE
0FFE
0006
000E
001C
0038
0070
00E0
01C0
0380
0700
0E00
1C00
3800
7000
E000
C000
FFE0
FFE0
ENDCHAR

STARTCHAR bracketleft
ENCODING 91
SWIDTH 351 0
DWIDTH 8 0
BBX 8 22 0 -3
BITMAP
03
0F
0C
18
18
18
18
30
30
30
30
60
60
60
60
C0
C0
C0
C0
C0
E0
60
ENDCHAR

STARTCHAR backslash
ENCODING 92
SWIDTH 605 0
DWIDTH 12 0
BBX 7 19 3 0
BITMAP
C0
C0
C0
60
60
60
30
30
30
30
18
18
18
0C
0C
0C
06
06
06
ENDCHAR

STARTCHAR bracketright
ENCODING 93
SWIDTH 351 0
DWIDTH 8 0
BBX 8 22 -1 -3
BITMAP
0C
0E
03
03
03
03
03
06
06
06
06
0C
0C
0C
0C
18
18
18
18
30
F0
C0
ENDCHAR

STARTCHAR asciicircum
ENCODING 94
SWIDTH 672 0
DWIDTH 16 0
BBX 12 12 1 7
BITMAP
0600
0600
0F00
0F00
1980
1980
30C0
30C0
6060
6060
C030
C030
ENDCHAR

STARTCHAR underscore
ENCODING 95
SWIDTH 500 0
DWIDTH 12 0
BBX 12 2 0 -3
BITMAP
FFF0
FFF0
ENDCHAR

STARTCHAR quoteleft
ENCODING 96
SWIDTH 351 0
DWIDTH 7 0
BBX 3 4 4 15
BITMAP
C0
C0
60
60
ENDCHAR

STARTCHAR a
ENCODING 97
SWIDTH 683 0
DWIDTH 16 0
BBX 15 14 1 0
BITMAP
03E6
0FF6
1C1E
300C
600C
600C
C00C
C00C
C018
C018
C038
60F0
7FB0
1F30
ENDCHAR

STARTCHAR b
ENCODING 98
SWIDTH 682 0
DWIDTH 16 0
BBX 15 19 0 0
BITMAP
0C00
0C00
0C00
0C00
1800
19F0
1BFC
1E0C
3806
3006
3006
2006
6006
600C
600C
6018
F070
DFE0
CF80
ENDCHAR

STARTCHAR c
ENCODING 99
SWIDTH 647 0
DWIDTH 15 0
BBX 14 14 1 0
BITMAP
03E0
0FF8
1C18
300C
600C
6000
C000
C000
C000
C000
C030
60E0
7FC0
1F00
ENDCHAR

STARTCHAR d
ENCODING 100
SWIDTH 685 0
DWIDTH 16 0
BBX 16 19 1 0
BITMAP
0003
0003
0003
0006
0006
03E6
0FF6
1C1E
300C
600C
600C
C00C
C008
C018
C018
C038
60F0
7FB0
1F30
ENDCHAR

STARTCHAR e
ENCODING 101
SWIDTH 650 0
DWIDTH 15 0
BBX 14 14 1 0
BITMAP
03E0
0FF8
1C18
300C
600C
600C
FFFC
FFFC
C000
C000
C030
60E0
7FC0
1F00
ENDCHAR

STARTCHAR f
ENCODING 102
SWIDTH 314 0
DWIDTH 8 0
BBX 9 19 1 0
BITMAP
0380
0780
0C00
0C00
1800
7F00
7F00
1800
3000
3000
3000
3000
6000
6000
6000
6000
C000
C000
C000
ENDCHAR

STARTCHAR g
ENCODING 103
SWIDTH 673 0
DWIDTH 16 0
BBX 15 18 1 -4
BITMAP
03E6
0FF6
1C1E
300C
600C
600C
C00C
C018
C018
C018
C038
60F0
7FB0
1F30
C060
E0E0
7FC0
3F00
ENDCHAR

STARTCHAR h
ENCODING 104
SWIDTH 610 0
DWIDTH 15 0
BBX 14 19 0 0
BITMAP
0C00
0C00
0C00
0C00
1800
19F0
1BF8
1E1C
380C
300C
300C
300C
6018
6018
6018
6018
C030
C030
C030
ENDCHAR

STARTCHAR i
ENCODING 105
SWIDTH 200 0
DWIDTH 5 0
BBX 6 18 0 0
BITMAP
0C
0C
00
00
18
18
18
30
30
30
30
60
60
60
60
C0
C0
C0
ENDCHAR

STARTCHAR j
ENCODING 106
SWIDTH 203 0
DWIDTH 5 0
BBX 9 22 -3 -4
BITMAP
0180
0180
0000
0000
0300
0300
0300
0600
0600
0600
0600
0C00
0C00
0C00
0C00
1800
1800
1800
1800
3000
F000
C000
ENDCHAR

STARTCHAR k
ENCODING 107
SWIDTH 502 0
DWIDTH 13 0
BBX 13 19 0 0
BITMAP
0C00
0C00
0C00
0C00
1800
1818
1838
1870
30E0
31C0
3380
3700
7C00
7E00
6700
6380
C1C0
C0E0
C060
ENDCHAR

STARTCHAR l
ENCODING 108
SWIDTH 200 0
DWIDTH 5 0
BBX 6 19 0 0
BITMAP
0C
0C
0C
18
18
18
18
30
30
30
30
60
60
60
60
C0
C0
C0
C0
ENDCHAR

STARTCHAR m
ENCODING 109
SWIDTH 938 0
DWIDTH 23 0
BBX 22 14 0 0
BITMAP
19E0F0
1BF3F8
1E1B1C
381E0C
301C0C
30180C
30180C
603018
603018
603018
603018
C06030
C06030
C06030
ENDCHAR

STARTCHAR n
ENCODING 110
SWIDTH 610 0
DWIDTH 15 0
BBX 14 14 0 0
BITMAP
19F0
1BF8
1E1C
380C
300C
300C
300C
6018
6018
6018
6018
C030
C030
C030
ENDCHAR

STARTCHAR o
ENCODING 111
SWIDTH 655 0
DWIDTH 16 0
BBX 14 14 1 0
BITMAP
03E0
0FF8
1C18
300C
600C
600C
C00C
C00C
C018
C018
C030
60E0
7FC0
1F00
ENDCHAR

STARTCHAR p
ENCODING 112
SWIDTH 682 0
DWIDTH 16 0
BBX 16 18 -1 -4
BITMAP
0CF8
0DFE
0F06
1C03
1803
1803
1803
3003
3006
3006
300C
7838
6FF0
67C0
6000
C000
C000
C000
ENDCHAR

STARTCHAR q
ENCODING 113
SWIDTH 682 0
DWIDTH 16 0
BBX 15 18 1 -4
BITMAP
03E6
0FF6
1C1E
300C
600C
600C
C00C
C018
C018
C018
C038
60F0
7FB0
1F30
0030
0060
0060
0060
ENDCHAR

STARTCHAR r
ENCODING 114
SWIDTH 301 0
DWIDTH 8 0
BBX 9 14 0 0
BITMAP
1B80
1F80
1C00
3000
3000
3000
3000
6000
6000
6000
6000
C000
C000
C000
ENDCHAR

STARTCHAR s
ENCODING 115
SWIDTH 388 0
DWIDTH 10 0
BBX 9 14 1 0
BITMAP
1F00
3F80
7180
6180
6000
7000
3C00
1E00
0700
0300
C300
C300
FE00
7C00
ENDCHAR

STARTCHAR t
ENCODING 116
SWIDTH 339 0
DWIDTH 9 0
BBX 8 19 2 0
BITMAP
0C
0C
0C
18
18
FF
FF
18
30
30
30
30
60
60
60
60
C0
C0
C0
ENDCHAR

STARTCHAR u
ENCODING 117
SWIDTH 608 0
DWIDTH 15 0
BBX 14 14 1 0
BITMAP
300C
300C
300C
6018
6018
6018
6018
C030
C030
C030
C070
E1E0
7F60
3E60
ENDCHAR

STARTCHAR v
ENCODING 118
SWIDTH 554 0
DWIDTH 13 0
BBX 12 14 2 0
BITMAP
C030
C030
C060
C0C0
C0C0
6180
6180
6300
6600
6600
6C00
3800
3800
3000
ENDCHAR

STARTCHAR w
ENCODING 119
SWIDTH 831 0
DWIDTH 21 0
BBX 21 14 1 0
BITMAP
C06018
C06018
C06030
C0E060
C0E060
61B0C0
61B0C0
633180
663300
663300
6C3600
381C00
381C00
301800
ENDCHAR

STARTCHAR x
ENCODING 120
SWIDTH 480 0
DWIDTH 11 0
BBX 12 14 0 0
BITMAP
3030
3030
1860
18C0
0D80
0D80
0700
0E00
1B00
1B00
3180
6180
C0C0
C0C0
ENDCHAR

STARTCHAR y
ENCODING 121
SWIDTH 536 0
DWIDTH 12 0
BBX 11 18 2 -4
BITMAP
C060
C060
C0C0
C0C0
C180
6180
6300
6600
6600
6C00
6C00
7800
3000
3000
6000
6000
C000
C000
ENDCHAR

STARTCHAR z
ENCODING 122
SWIDTH 425 0
DWIDTH 11 0
BBX 11 14 0 0
BITMAP
3FE0
3FE0
0060
01C0
0380
0700
0E00
1C00
3800
7000
E000
8000
FF80
FF80
ENDCHAR

STARTCHAR braceleft
ENCODING 123
SWIDTH 351 0
DWIDTH 9 0
BBX 9 22 1 -3
BITMAP
0180
0700
0600
0C00
0C00
0C00
0C00
1800
1800
1800
E000
E000
3000
3000
3000
6000
6000
6000
6000
6000
6000
3000
ENDCHAR

STARTCHAR bar
ENCODING 124
SWIDTH 672 0
DWIDTH 17 0
BBX 5 19 6 0
BITMAP
18
18
18
18
30
30
30
30
30
60
60
60
60
60
C0
C0
C0
C0
C0
ENDCHAR

STARTCHAR braceright
ENCODING 125
SWIDTH 351 0
DWIDTH 9 0
BBX 9 22 -1 -3
BITMAP
0C00
0600
0300
0300
0300
0300
0300
0600
0600
0600
0380
0380
0C00
0C00
0C00
1800
1800
1800
1800
3000
7000
C000
ENDCHAR

STARTCHAR asciitilde
ENCODING 126
SWIDTH 606 0
DWIDTH 16 0
BBX 13 5 1 5
BITMAP
1C00
3E18
6730
C3E0
01C0
ENDCHAR

STARTCHAR exclamdown
ENCODING 161
SWIDTH 295 0
DWIDTH 7 0
BBX 6 18 0 -4
BITMAP
0C
0C
00
00
18
18
18
30
30
30
30
60
60
60
60
C0
C0
C0
ENDCHAR

STARTCHAR cent
ENCODING 162
SWIDTH 554 0
DWIDTH 14 0
BBX 12 18 1 0
BITMAP
0180
0180
0180
0380
1FE0
3CF0
7030
6000
C000
C000
C000
C060
E0E0
7FC0
3F00
1800
1800
1800
ENDCHAR

STARTCHAR sterling
ENCODING 163
SWIDTH 554 0
DWIDTH 18 0
BBX 16 19 0 0
BITMAP
00F8
03FE
070E
0603
0C03
0C03
0C00
0C00
0C00
3FF0
3FF0
0600
0606
0606
0606
0C0C
1C3C
FFF8
FFE0
ENDCHAR

STARTCHAR currency
ENCODING 164
SWIDTH 554 0
DWIDTH 14 0
BBX 12 13 1 1
BITMAP
CF30
FFF0
70E0
6060
C030
C030
C030
C030
C030
6060
70E0
FFF0
CF30
ENDCHAR

STARTCHAR yen
ENCODING 165
SWIDTH 554 0
DWIDTH 15 0
BBX 13 19 2 0
BITMAP
6018
6018
6030
6070
3060
30C0
30C0
F1E0
F3E0
3300
1E00
FF80
FF80
1800
1800
1800
3000
3000
3000
ENDCHAR

STARTCHAR brokenbar
ENCODING 166
SWIDTH 672 0
DWIDTH 15 0
BBX 5 19 6 0
BITMAP
18
18
18
18
30
30
30
30
00
00
00
60
60
60
60
C0
C0
C0
C0
ENDCHAR

STARTCHAR section
ENCODING 167
SWIDTH 615 0
DWIDTH 16 0
BBX 13 22 1 -3
BITMAP
03C0
0FE0
1C70
1838
1C18
0E00
0700
1F80
39E0
6070
6038
7018
3818
1C30
0FE0
03C0
0180
C0C0
E0C0
71C0
3F80
0F00
ENDCHAR

STARTCHAR dieresis
ENCODING 168
SWIDTH 369 0
DWIDTH 9 0
BBX 6 2 2 17
BITMAP
CC
CC
ENDCHAR

STARTCHAR copyright
ENCODING 169
SWIDTH 747 0
DWIDTH 19 0
BBX 17 17 1 0
BITMAP
03E000
0C1800
100400
200200
43E100
441100
880880
880080
880080
880080
880880
441100
43E100
200200
100400
0C1800
03E000
ENDCHAR

STARTCHAR ordfeminine
ENCODING 170
SWIDTH 369 0
DWIDTH 9 0
BBX 9 10 1 9
BITMAP
0E80
1B80
3180
6180
6100
6300
6F00
3A00
0000
FE00
ENDCHAR

STARTCHAR guillemotleft
ENCODING 171
SWIDTH 425 0
DWIDTH 12 0
BBX 10 9 1 2
BITMAP
0CC0
1980
3300
6600
CC00
CC00
6600
3300
1100
ENDCHAR

STARTCHAR logicalnot
ENCODING 172
SWIDTH 606 0
DWIDTH 15 0
BBX 12 7 1 3
BITMAP
FFF0
FFF0
0030
0030
0030
0030
0030
ENDCHAR

STARTCHAR hyphen
ENCODING 173
SWIDTH 332 0
DWIDTH 8 0
BBX 7 2 0 6
BITMAP
FE
FE
ENDCHAR

STARTCHAR registered
ENCODING 174
SWIDTH 747 0
DWIDTH 19 0
BBX 17 17 1 0
BITMAP
03E000
0C1800
100400
200200
47E100
441100
841080
841080
87E080
844080
842080
442100
441100
200200
100400
0C1800
03E000
ENDCHAR

STARTCHAR macron
ENCODING 175
SWIDTH 485 0
DWIDTH 13 0
BBX 7 2 5 17
BITMAP
FE
FE
ENDCHAR

STARTCHAR degree
ENCODING 176
SWIDTH 400 0
DWIDTH 9 0
BBX 8 7 2 12
BITMAP
3C
66
C3
C3
C3
66
3C
ENDCHAR

STARTCHAR plusminus
ENCODING 177
SWIDTH 606 0
DWIDTH 15 0
BBX 14 13 0 0
BITMAP
00C0
00C0
00C0
0180
3FFC
3FFC
0180
0300
0300
0300
0000
FFF0
FFF0
ENDCHAR

STARTCHAR twosuperior
ENCODING 178
SWIDTH 332 0
DWIDTH 8 0
BBX 8 11 1 8
BITMAP
1E
3F
63
63
07
0E
3C
70
C0
FE
FE
ENDCHAR

STARTCHAR threesuperior
ENCODING 179
SWIDTH 332 0
DWIDTH 8 0
BBX 8 11 1 8
BITMAP
1E
3F
63
03
0E
3C
06
06
CE
FC
78
ENDCHAR

STARTCHAR acute
ENCODING 180
SWIDTH 375 0
DWIDTH 10 0
BBX 5 4 5 15
BITMAP
18
38
70
C0
ENDCHAR

STARTCHAR mu
ENCODING 181
SWIDTH 608 0
DWIDTH 15 0
BBX 16 18 -1 -4
BITMAP
0C03
0C03
0C03
1806
1806
1806
1806
300C
300C
300C
301C
7878
7FD8
6F98
6000
C000
C000
C000
ENDCHAR

STARTCHAR paragraph
ENCODING 182
SWIDTH 564 0
DWIDTH 14 0
BBX 13 22 2 -3
BITMAP
0FF8
3FF8
7FB0
7F30
FF30
FF60
FE60
FE60
7EC0
3EC0
0CC0
0CC0
0D80
1980
1980
1980
1B00
3300
3300
3300
6600
6600
ENDCHAR

STARTCHAR periodcentered
ENCODING 183
SWIDTH 277 0
DWIDTH 7 0
BBX 2 2 2 6
BITMAP
C0
C0
ENDCHAR

STARTCHAR cedilla
ENCODING 184
SWIDTH 324 0
DWIDTH 8 0
BBX 5 4 0 -4
BITMAP
30
18
98
70
ENDCHAR

STARTCHAR onesuperior
ENCODING 185
SWIDTH 332 0
DWIDTH 8 0
BBX 4 11 3 8
BITMAP
F0
F0
30
30
60
60
60
C0
C0
C0
C0
ENDCHAR

STARTCHAR ordmasculine
ENCODING 186
SWIDTH 369 0
DWIDTH 9 0
BBX 9 10 1 9
BITMAP
0E00
1B00
3180
6180
6180
6300
3600
1C00
0000
FE00
ENDCHAR

STARTCHAR guillemotright
ENCODING 187
SWIDTH 425 0
DWIDTH 12 0
BBX 10 9 0 2
BITMAP
2200
3300
1980
0CC0
0CC0
1980
3300
6600
C400
ENDCHAR

STARTCHAR onequarter
ENCODING 188
SWIDTH 831 0
DWIDTH 21 0
BBX 15 19 3 0
BITMAP
F030
F060
3060
30C0
60C0
6180
6180
6300
C306
C60E
C61E
0C36
0C64
18CC
198C
31FE
31FE
6018
6018
ENDCHAR

STARTCHAR onehalf
ENCODING 189
SWIDTH 831 0
DWIDTH 21 0
BBX 16 19 3 0
BITMAP
F030
F060
3060
30C0
60C0
6180
6180
6300
C31E
C63F
C663
0C63
0C07
180E
183C
3070
30C0
60FE
60FE
ENDCHAR

STARTCHAR threequarters
ENCODING 190
SWIDTH 831 0
DWIDTH 21 0
BBX 18 19 1 0
BITMAP
1E0600
3F0C00
630C00
031800
0E1800
3C3000
063000
066000
CE60C0
FCC1C0
78C3C0
0186C0
018C80
031980
033180
063FC0
063FC0
0C0300
0C0300
ENDCHAR

STARTCHAR questiondown
ENCODING 191
SWIDTH 591 0
DWIDTH 13 0
BBX 10 19 0 -4
BITMAP
0180
0180
0000
0000
0300
0300
0300
0600
0E00
1C00
3800
7000
E000
C000
C0C0
C0C0
E1C0
7F80
3F00
ENDCHAR

STARTCHAR Agrave
ENCODING 192
SWIDTH 740 0
DWIDTH 19 0
BBX 17 24 0 0
BITMAP
006000
006000
001800
001800
000000
001800
003800
003800
007800
00EC00
00CC00
01CC00
038C00
030600
070600
060600
0FFE00
1FFF00
180300
380300
700300
600380
E00180
C00180
ENDCHAR

STARTCHAR Aacute
ENCODING 193
SWIDTH 740 0
DWIDTH 19 0
BBX 17 24 0 0
BITMAP
000600
000600
001800
001800
000000
001800
003800
003800
007800
00EC00
00CC00
01CC00
038C00
030600
070600
060600
0FFE00
1FFF00
180300
380300
700300
600380
E00180
C00180
ENDCHAR

STARTCHAR Acircumflex
ENCODING 194
SWIDTH 740 0
DWIDTH 19 0
BBX 17 23 0 0
BITMAP
001800
003C00
006600
000000
001800
003800
003800
007800
00EC00
00CC00
01CC00
038C00
030600
070600
060600
0FFE00
1FFF00
180300
380300
700300
600380
E00180
C00180
ENDCHAR

STARTCHAR Atilde
ENCODING 195
SWIDTH 740 0
DWIDTH 19 0
BBX 17 23 0 0
BITMAP
006600
006600
000000
000000
001800
003800
003800
007800
00EC00
00CC00
01CC00
038C00
030600
070600
060600
0FFE00
1FFF00
180300
380300
700300
600380
E00180
C00180
ENDCHAR

STARTCHAR Adieresis
ENCODING 196
SWIDTH 740 0
DWIDTH 19 0
BBX 17 23 0 0
BITMAP
007200
00FE00
009C00
000000
001800
003800
003800
007800
00EC00
00CC00
01CC00
038C00
030600
070600
060600
0FFE00
1FFF00
180300
380300
700300
600380
E00180
C00180
ENDCHAR

STARTCHAR Aring
ENCODING 197
SWIDTH 740 0
DWIDTH 19 0
BBX 17 24 0 0
BITMAP
001800
002400
002400
001800
000000
001800
003800
003800
007800
00EC00
00CC00
01CC00
038C00
030600
070600
060600
0FFE00
1FFF00
180300
380300
700300
600380
E00180
C00180
ENDCHAR

STARTCHAR AE
ENCODING 198
SWIDTH 992 0
DWIDTH 23 0
BBX 25 19 -1 0
BITMAP
0003FF80
0007FF80
000EC000
000CC000
00198000
00398000
00718000
00E18000
00C3FE00
0183FE00
03830000
07FF0000
0FFE0000
1C060000
18060000
30060000
700C0000
E00FF800
C00FF800
ENDCHAR

STARTCHAR Ccedilla
ENCODING 199
SWIDTH 813 0
DWIDTH 20 0
BBX 18 23 1 -4
BITMAP
00FC00
03FF00
0F0380
1C01C0
3800C0
3000C0
600000
600000
C00000
C00000
C00000
C00000
C00000
E00180
600380
700700
381E00
1FF800
07E000
018000
00C000
04C000
038000
ENDCHAR

STARTCHAR Egrave
ENCODING 200
SWIDTH 536 0
DWIDTH 13 0
BBX 14 24 0 0
BITMAP
0180
0180
0060
0060
0000
0FFC
0FFC
0C00
0C00
1800
1800
1800
1800
3FF0
3FF0
3000
3000
6000
6000
6000
6000
C000
FFC0
FFC0
ENDCHAR

STARTCHAR Eacute
ENCODING 201
SWIDTH 536 0
DWIDTH 13 0
BBX 14 24 0 0
BITMAP
0030
0030
00C0
00C0
0000
0FFC
0FFC
0C00
0C00
1800
1800
1800
1800
3FF0
3FF0
3000
3000
6000
6000
6000
6000
C000
FFC0
FFC0
ENDCHAR

STARTCHAR Ecircumflex
ENCODING 202
SWIDTH 536 0
DWIDTH 13 0
BBX 14 23 0 0
BITMAP
00C0
01E0
0330
0000
0FFC
0FFC
0C00
0C00
1800
1800
1800
1800
3FF0
3FF0
3000
3000
6000
6000
6000
6000
C000
FFC0
FFC0
ENDCHAR

STARTCHAR Edieresis
ENCODING 203
SWIDTH 536 0
DWIDTH 13 0
BBX 14 23 0 0
BITMAP
0330
0330
0000
0000
0FFC
0FFC
0C00
0C00
1800
1800
1800
1800
3FF0
3FF0
3000
3000
6000
6000
6000
6000
C000
FFC0
FFC0
ENDCHAR

STARTCHAR Igrave
ENCODING 204
SWIDTH 226 0
DWIDTH 5 0
BBX 6 24 0 0
BITMAP
30
30
0C
0C
00
0C
0C
0C
18
18
18
18
30
30
30
30
60
60
60
60
C0
C0
C0
C0
ENDCHAR

STARTCHAR Iacute
ENCODING 205
SWIDTH 226 0
DWIDTH 5 0
BBX 8 24 0 0
BITMAP
03
03
0C
0C
00
0C
0C
0C
18
18
18
18
30
30
30
30
60
60
60
60
C0
C0
C0
C0
ENDCHAR

STARTCHAR Icircumflex
ENCODING 206
SWIDTH 226 0
DWIDTH 5 0
BBX 8 23 0 0
BITMAP
0C
1E
33
00
0C
0C
0C
18
18
18
18
30
30
30
30
60
60
60
60
C0
C0
C0
C0
ENDCHAR

STARTCHAR Idieresis
ENCODING 207
SWIDTH 226 0
DWIDTH 5 0
BBX 8 23 0 0
BITMAP
33
33
00
00
0C
0C
0C
18
18
18
18
30
30
30
30
60
60
60
60
C0
C0
C0
C0
ENDCHAR

STARTCHAR Eth
ENCODING 208
SWIDTH 790 0
DWIDTH 17 0
BBX 17 19 0 0
BITMAP
0FF800
0FFE00
0C0F00
0C0300
0C0180
180180
180180
180180
FF0180
FF0180
300180
300300
600300
600600
600E00
601C00
C07800
FFE000
FF8000
ENDCHAR

STARTCHAR Ntilde
ENCODING 209
SWIDTH 740 0
DWIDTH 18 0
BBX 18 23 0 0
BITMAP
007200
00FE00
009C00
000000
0F00C0
0F00C0
0D80C0
0D80C0
198180
198180
18C180
18C180
30C300
30C300
306300
306300
606600
603600
603600
603600
C03C00
C01C00
C01C00
ENDCHAR

STARTCHAR Ograve
ENCODING 210
SWIDTH 869 0
DWIDTH 21 0
BBX 19 24 1 0
BITMAP
00C000
00C000
003000
003000
000000
00FC00
03FF00
0F0380
1C01C0
3800C0
3000E0
600060
600060
C00060
C00060
C00060
C000C0
C000C0
E00180
600380
700700
381E00
1FF800
07E000
ENDCHAR

STARTCHAR Oacute
ENCODING 211
SWIDTH 869 0
DWIDTH 21 0
BBX 19 24 1 0
BITMAP
000C00
000C00
003000
003000
000000
00FC00
03FF00
0F0380
1C01C0
3800C0
3000E0
600060
600060
C00060
C00060
C00060
C000C0
C000C0
E00180
600380
700700
381E00
1FF800
07E000
ENDCHAR

STARTCHAR Ocircumflex
ENCODING 212
SWIDTH 869 0
DWIDTH 21 0
BBX 19 23 1 0
BITMAP
003000
007800
00CC00
000000
00FC00
03FF00
0F0380
1C01C0
3800C0
3000E0
600060
600060
C00060
C00060
C00060
C000C0
C000C0
E00180
600380
700700
381E00
1FF800
07E000
ENDCHAR

STARTCHAR Otilde
ENCODING 213
SWIDTH 869 0
DWIDTH 21 0
BBX 19 23 1 0
BITMAP
007200
00FE00
009C00
000000
00FC00
03FF00
0F0380
1C01C0
3800C0
3000E0
600060
600060
C00060
C00060
C00060
C000C0
C000C0
E00180
600380
700700
381E00
1FF800
07E000
ENDCHAR

STARTCHAR Odieresis
ENCODING 214
SWIDTH 869 0
DWIDTH 21 0
BBX 19 23 1 0
BITMAP
00CC00
00CC00
000000
000000
00FC00
03FF00
0F0380
1C01C0
3800C0
3000E0
600060
600060
C00060
C00060
C00060
C000C0
C000C0
E00180
600380
700700
381E00
1FF800
07E000
ENDCHAR

STARTCHAR multiply
ENCODING 215
SWIDTH 606 0
DWIDTH 15 0
BBX 12 12 1 1
BITMAP
6030
7070
38E0
1DC0
0F80
0700
0F00
1F80
39C0
70E0
E070
C020
ENDCHAR

STARTCHAR Oslash
ENCODING 216
SWIDTH 868 0
DWIDTH 21 0
BBX 21 19 0 0
BITMAP
007E18
01FFB0
0781E0
0E00E0
1C01E0
180370
300630
300C30
601830
607030
60C030
618060
630060
7600C0
3C01C0
380380
7C0F00
CFFC00
83F000
ENDCHAR

STARTCHAR Ugrave
ENCODING 217
SWIDTH 655 0
DWIDTH 16 0
BBX 17 24 0 0
BITMAP
018000
018000
006000
006000
000000
180180
180180
180180
180300
300300
300300
300300
300600
600600
600600
600600
600E00
C00C00
C00C00
E01C00
603800
707000
3FE000
1F8000
ENDCHAR

STARTCHAR Uacute
ENCODING 218
SWIDTH 655 0
DWIDTH 16 0
BBX 17 24 0 0
BITMAP
001800
001800
006000
006000
000000
180180
180180
180180
180300
300300
300300
300300
300600
600600
600600
600600
600E00
C00C00
C00C00
E01C00
603800
707000
3FE000
1F8000
ENDCHAR

STARTCHAR Ucircumflex
ENCODING 219
SWIDTH 655 0
DWIDTH 16 0
BBX 17 23 0 0
BITMAP
006000
00F000
019800
000000
180180
180180
180180
180300
300300
300300
300300
300600
600600
600600
600600
600E00
C00C00
C00C00
E01C00
603800
707000
3FE000
1F8000
ENDCHAR

STARTCHAR Udieresis
ENCODING 220
SWIDTH 655 0
DWIDTH 16 0
BBX 17 23 0 0
BITMAP
019800
019800
000000
000000
180180
180180
180180
180300
300300
300300
300300
300600
600600
600600
600600
600E00
C00C00
C00C00
E01C00
603800
707000
3FE000
1F8000
ENDCHAR

STARTCHAR Yacute
ENCODING 221
SWIDTH 592 0
DWIDTH 14 0
BBX 14 24 2 0
BITMAP
00C0
00C0
0300
0300
0000
C00C
C01C
6038
6030
6060
30E0
30C0
3180
1B80
1B00
1E00
1E00
0C00
1800
1800
1800
3000
3000
3000
ENDCHAR

STARTCHAR Thorn
ENCODING 222
SWIDTH 592 0
DWIDTH 13 0
BBX 13 19 0 0
BITMAP
0C00
0C00
0C00
0FC0
1FF0
1838
1818
1818
3018
3018
3030
3070
60E0
7FC0
7F00
6000
C000
C000
C000
ENDCHAR

STARTCHAR germandbls
ENCODING 223
SWIDTH 554 0
DWIDTH 14 0
BBX 13 19 0 0
BITMAP
01E0
07F0
0E38
0C18
1818
1818
1818
1830
33E0
33F0
3038
3018
6018
6018
7018
7030
D870
DFE0
CF80
ENDCHAR

STARTCHAR agrave
ENCODING 224
SWIDTH 683 0
DWIDTH 16 0
BBX 15 19 1 0
BITMAP
0300
0300
00C0
00C0
0000
03E6
0FF6
1C1E
300C
600C
600C
C00C
C00C
C018
C018
C038
60F0
7FB0
1F30
ENDCHAR

STARTCHAR aacute
ENCODING 225
SWIDTH 683 0
DWIDTH 16 0
BBX 15 19 1 0
BITMAP
0060
0060
0180
0180
0000
03E6
0FF6
1C1E
300C
600C
600C
C00C
C00C
C018
C018
C038
60F0
7FB0
1F30
ENDCHAR

STARTCHAR acircumflex
ENCODING 226
SWIDTH 683 0
DWIDTH 16 0
BBX 15 18 1 0
BITMAP
00C0
01E0
0330
0000
03E6
0FF6
1C1E
300C
600C
600C
C00C
C00C
C018
C018
C038
60F0
7FB0
1F30
ENDCHAR

STARTCHAR atilde
ENCODING 227
SWIDTH 683 0
DWIDTH 16 0
BBX 15 18 1 0
BITMAP
0188
03F8
0230
0000
03E6
0FF6
1C1E
300C
600C
600C
C00C
C00C
C018
C018
C038
60F0
7FB0
1F30
ENDCHAR

STARTCHAR adieresis
ENCODING 228
SWIDTH 683 0
DWIDTH 16 0
BBX 15 18 1 0
BITMAP
0330
0330
0000
0000
03E6
0FF6
1C1E
300C
600C
600C
C00C
C00C
C018
C018
C038
60F0
7FB0
1F30
ENDCHAR

STARTCHAR aring
ENCODING 229
SWIDTH 683 0
DWIDTH 16 0
BBX 15 19 1 0
BITMAP
00C0
0120
0120
00C0
0000
03E6
0FF6
1C1E
300C
600C
600C
C00C
C00C
C018
C018
C038
60F0
7FB0
1F30
ENDCHAR

STARTCHAR ae
ENCODING 230
SWIDTH 1157 0
DWIDTH 28 0
BBX 25 14 1 0
BITMAP
03E67C00
0FF7FF00
1C1F8300
300E0180
600C0180
600C0180
C00FFF80
C01FFF80
C0180000
C0180000
C0380600
60FC1C00
7FBFF800
1F33E000
ENDCHAR

STARTCHAR ccedilla
ENCODING 231
SWIDTH 647 0
DWIDTH 15 0
BBX 14 18 1 -4
BITMAP
03E0
0FF8
1C18
300C
600C
6000
C000
C000
C000
C000
C030
60E0
7FC0
1F00
0600
0300
1300
0E00
ENDCHAR

STARTCHAR egrave
ENCODING 232
SWIDTH 650 0
DWIDTH 15 0
BBX 14 19 1 0
BITMAP
0600
0600
0180
0180
0000
03E0
0FF8
1C18
300C
600C
600C
FFFC
FFFC
C000
C000
C030
60E0
7FC0
1F00
ENDCHAR

STARTCHAR eacute
ENCODING 233
SWIDTH 650 0
DWIDTH 15 0
BBX 14 19 1 0
BITMAP
0060
0060
0180
0180
0000
03E0
0FF8
1C18
300C
600C
600C
FFFC
FFFC
C000
C000
C030
60E0
7FC0
1F00
ENDCHAR

STARTCHAR ecircumflex
ENCODING 234
SWIDTH 650 0
DWIDTH 15 0
BBX 14 18 1 0
BITMAP
00C0
01E0
0330
0000
03E0
0FF8
1C18
300C
600C
600C
FFFC
FFFC
C000
C000
C030
60E0
7FC0
1F00
ENDCHAR

STARTCHAR edieresis
ENCODING 235
SWIDTH 650 0
DWIDTH 15 0
BBX 14 18 1 0
BITMAP
0330
0330
0000
0000
03E0
0FF8
1C18
300C
600C
600C
FFFC
FFFC
C000
C000
C030
60E0
7FC0
1F00
ENDCHAR

STARTCHAR igrave
ENCODING 236
SWIDTH 200 0
DWIDTH 5 0
BBX 5 19 0 0
BITMAP
60
60
18
18
00
18
18
18
30
30
30
30
60
60
60
60
C0
C0
C0
ENDCHAR

STARTCHAR iacute
ENCODING 237
SWIDTH 200 0
DWIDTH 5 0
BBX 7 19 0 0
BITMAP
06
06
18
18
00
18
18
18
30
30
30
30
60
60
60
60
C0
C0
C0
ENDCHAR

STARTCHAR icircumflex
ENCODING 238
SWIDTH 200 0
DWIDTH 5 0
BBX 8 18 0 0
BITMAP
0C
1E
33
00
18
18
18
30
30
30
30
60
60
60
60
C0
C0
C0
ENDCHAR

STARTCHAR idieresis
ENCODING 239
SWIDTH 200 0
DWIDTH 5 0
BBX 8 18 0 0
BITMAP
33
33
00
00
18
18
18
30
30
30
30
60
60
60
60
C0
C0
C0
ENDCHAR

STARTCHAR eth
ENCODING 240
SWIDTH 655 0
DWIDTH 16 0
BBX 14 19 1 0
BITMAP
1E70
0380
07C0
0860
0030
03F8
0FF8
1C1C
300C
600C
600C
C00C
C00C
C018
C018
C030
60E0
7FC0
1F00
ENDCHAR

STARTCHAR ntilde
ENCODING 241
SWIDTH 610 0
DWIDTH 15 0
BBX 14 18 0 0
BITMAP
0188
03F8
0230
0000
19F0
1BF8
1E1C
380C
300C
300C
300C
6018
6018
6018
6018
C030
C030
C030
ENDCHAR

STARTCHAR ograve
ENCODING 242
SWIDTH 655 0
DWIDTH 16 0
BBX 14 19 1 0
BITMAP
0300
0300
00C0
00C0
0000
03E0
0FF8
1C18
300C
600C
600C
C00C
C00C
C018
C018
C030
60E0
7FC0
1F00
ENDCHAR

STARTCHAR oacute
ENCODING 243
SWIDTH 655 0
DWIDTH 16 0
BBX 14 19 1 0
BITMAP
0060
0060
0180
0180
0000
03E0
0FF8
1C18
300C
600C
600C
C00C
C00C
C018
C018
C030
60E0
7FC0
1F00
ENDCHAR

STARTCHAR ocircumflex
ENCODING 244
SWIDTH 655 0
DWIDTH 16 0
BBX 14 18 1 0
BITMAP
00C0
01E0
0330
0000
03E0
0FF8
1C18
300C
600C
600C
C00C
C00C
C018
C018
C030
60E0
7FC0
1F00
ENDCHAR

STARTCHAR otilde
ENCODING 245
SWIDTH 655 0
DWIDTH 16 0
BBX 14 18 1 0
BITMAP
0310
07F0
0460
0000
03E0
0FF8
1C18
300C
600C
600C
C00C
C00C
C018
C018
C030
60E0
7FC0
1F00
ENDCHAR

STARTCHAR odieresis
ENCODING 246
SWIDTH 655 0
DWIDTH 16 0
BBX 14 18 1 0
BITMAP
0198
0198
0000
0000
03E0
0FF8
1C18
300C
600C
600C
C00C
C00C
C018
C018
C030
60E0
7FC0
1F00
ENDCHAR

STARTCHAR divide
ENCODING 247
SWIDTH 606 0
DWIDTH 15 0
BBX 12 12 1 1
BITMAP
0300
0300
0300
0000
0000
FFF0
FFF0
0000
0000
0C00
0C00
0C00
ENDCHAR

STARTCHAR oslash
ENCODING 248
SWIDTH 653 0
DWIDTH 16 0
BBX 16 14 0 0
BITMAP
01F3
07FE
0E0C
181E
3036
3066
61C6
6386
660C
6C0C
7818
7070
FFE0
8F80
ENDCHAR

STARTCHAR ugrave
ENCODING 249
SWIDTH 608 0
DWIDTH 15 0
BBX 14 19 1 0
BITMAP
0600
0600
0180
0180
0000
300C
300C
300C
6018
6018
6018
6018
C030
C030
C030
C070
E1E0
7F60
3E60
ENDCHAR

STARTCHAR uacute
ENCODING 250
SWIDTH 608 0
DWIDTH 15 0
BBX 14 19 1 0
BITMAP
0060
0060
0180
0180
0000
300C
300C
300C
6018
6018
6018
6018
C030
C030
C030
C070
E1E0
7F60
3E60
ENDCHAR

STARTCHAR ucircumflex
ENCODING 251
SWIDTH 608 0
DWIDTH 15 0
BBX 14 18 1 0
BITMAP
0180
03C0
0660
0000
300C
300C
300C
6018
6018
6018
6018
C030
C030
C030
C070
E1E0
7F60
3E60
ENDCHAR

STARTCHAR udieresis
ENCODING 252
SWIDTH 608 0
DWIDTH 15 0
BBX 14 18 1 0
BITMAP
0660
0660
0000
0000
300C
300C
300C
6018
6018
6018
6018
C030
C030
C030
C070
E1E0
7F60
3E60
ENDCHAR

STARTCHAR yacute
ENCODING 253
SWIDTH 536 0
DWIDTH 12 0
BBX 11 23 2 -4
BITMAP
0180
0180
0600
0600
0000
C060
C060
C0C0
C0C0
C180
6180
6300
6600
6600
6C00
6C00
7800
3000
3000
6000
6000
C000
C000
ENDCHAR

STARTCHAR thorn
ENCODING 254
SWIDTH 682 0
DWIDTH 16 0
BBX 16 23 -1 -4
BITMAP
0600
0600
0600
0600
0C00
0CF8
0DFE
0F06
1C03
1803
1803
1803
3003
3006
3006
300C
7838
6FF0
67C0
6000
C000
C000
C000
ENDCHAR

STARTCHAR ydieresis
ENCODING 255
SWIDTH 536 0
DWIDTH 12 0
BBX 11 22 2 -4
BITMAP
3300
3300
0000
0000
C060
C060
C0C0
C0C0
C180
C180
6300
6600
6600
6C00
6C00
7800
3000
3000
6000
6000
C000
C000
ENDCHAR
ENDFONT
